<?xml version="1.0" standalone="no"?>
<!DOCTYPE svg PUBLIC "-//W3C//DTD SVG 1.1//EN" "http://www.w3.org/Graphics/SVG/1.1/DTD/svg11.dtd" >
<svg xmlns="http://www.w3.org/2000/svg" xmlns:xlink="http://www.w3.org/1999/xlink" version="1.1">
<metadata></metadata>
<defs>
<font id="kionalight" horiz-adv-x="1433" >
<font-face units-per-em="2048" ascent="1638" descent="-410" />
<missing-glyph horiz-adv-x="710" />
<glyph horiz-adv-x="0" />
<glyph horiz-adv-x="682" />
<glyph unicode=" "  horiz-adv-x="710" />
<glyph unicode="&#x09;" horiz-adv-x="710" />
<glyph unicode="&#xa0;" horiz-adv-x="710" />
<glyph unicode="!" horiz-adv-x="491" d="M201 45q0 -18 14 -31.5t31 -13.5q20 0 32.5 13.5t12.5 31.5q0 20 -12.5 32.5t-32.5 12.5q-19 0 -32 -13.5t-13 -31.5zM225 227v1104h43v-1104h-43z" />
<glyph unicode="&#x22;" horiz-adv-x="692" d="M178 1157h62l92 174h-94zM362 1157h64l90 174h-92z" />
<glyph unicode="#" horiz-adv-x="1691" d="M119 330l6 39h332l92 594h-332l6 43h332l51 325h41l-49 -325h598l53 325h43l-53 -325h334l-6 -43h-332l-92 -594h332l-9 -39h-331l-52 -330h-43l54 330h-602l-50 -330h-43l50 330h-330zM500 369h600l92 594h-600z" />
<glyph unicode="$" horiz-adv-x="1267" d="M166 178l29 31q188 -180 458 -180q98 0 208 43t149 172q12 41 12 80q0 92 -65.5 165.5t-182.5 110.5l-291 86q-164 49 -237 166q-45 74 -45 154q0 49 14 92q43 131 162 190q94 51 227 55v228h41v-230q256 -6 457 -190l-29 -31q-197 180 -459 180q-98 0 -208.5 -44 t-149.5 -171q-12 -39 -12 -79q0 -92 65.5 -166t184.5 -113l290 -86q166 -51 238 -164q45 -72 45 -151q0 -41 -16 -95q-39 -129 -160 -190q-102 -55 -238 -55h-8v-224h-41v224q-252 18 -438 192z" />
<glyph unicode="%" horiz-adv-x="1392" d="M166 1085q0 -100 69.5 -170.5t170.5 -70.5q98 0 167.5 70.5t69.5 170.5t-69.5 170t-167.5 70q-100 0 -170 -69.5t-70 -170.5zM209 1085q0 82 57.5 139.5t139.5 57.5q81 0 137.5 -57.5t56.5 -139.5q0 -84 -56.5 -141t-137.5 -57q-82 0 -139.5 57t-57.5 141zM279 0 l784 1331h49l-786 -1331h-47zM752 254q0 -100 69.5 -170t167.5 -70t168 70t70 170q0 98 -70 169t-168 71t-167.5 -71t-69.5 -169zM795 254q0 82 57 140.5t137 58.5q82 0 139.5 -58.5t57.5 -140.5t-57.5 -140.5t-139.5 -58.5q-80 0 -137 58.5t-57 140.5z" />
<glyph unicode="&#x26;" horiz-adv-x="1490" d="M213 330q0 125 72.5 200.5t212.5 139.5l-68 67q-49 47 -89 120t-40 165q0 135 98 229q47 45 109.5 68.5t130.5 23.5q137 0 240 -92q98 -94 98 -229q0 -72 -53.5 -143.5t-147.5 -126.5l-28 30q88 51 137 115t49 125q0 57 -22.5 108.5t-65.5 90.5q-39 39 -93.5 59 t-113.5 20q-121 0 -211 -79q-41 -39 -63.5 -90.5t-22.5 -108.5q0 -133 117 -256q137 -135 392 -393t368 -373h-60l-166 164l-8 -8t-6 -4q-94 -74 -176 -120t-168 -46q-117 0 -213 46t-152.5 125t-56.5 173zM256 330q0 -82 50 -151.5t137 -109.5t192 -40q78 0 152.5 42 t164.5 113l6 2l7 7l-437 444q-137 -61 -204.5 -128t-67.5 -179zM1165 354l105 88l30 -30l-106 -86z" />
<glyph unicode="'" horiz-adv-x="460" d="M166 1157h63l90 174h-94z" />
<glyph unicode="(" horiz-adv-x="698" d="M166 369v592q0 70 32.5 138t94.5 126q104 94 239 116v-43q-123 -23 -210 -104q-55 -49 -84 -110.5t-29 -122.5v-592q0 -61 28.5 -122t84.5 -110q91 -86 210 -104v-43q-131 18 -239 116q-59 55 -93 124t-34 139z" />
<glyph unicode=")" horiz-adv-x="696" d="M166 -10q63 8 124.5 38.5t110.5 77.5q61 55 95 124t34 139v592q0 72 -32.5 139t-96.5 125q-49 45 -110.5 75.5t-124.5 40.5v-43q123 -23 207 -104q55 -49 84.5 -110.5t29.5 -122.5v-592q0 -61 -29.5 -122t-84.5 -110q-88 -86 -207 -104v-43z" />
<glyph unicode="*" horiz-adv-x="1040" d="M94 1079l393 -129l-241 -334l33 -24l241 334l244 -334l33 24l-242 334l391 129l-12 39l-393 -127v412h-39l-2 -412l-391 127z" />
<glyph unicode="+" horiz-adv-x="1169" d="M166 647v43h397v397h43v-397h398v-43h-398v-397h-43v397h-397z" />
<glyph unicode="," horiz-adv-x="448" d="M131 -88h64l90 176h-97z" />
<glyph unicode="-" horiz-adv-x="1169" d="M166 647h838v41h-838v-41z" />
<glyph unicode="." horiz-adv-x="456" d="M166 63q0 -26 18.5 -44.5t44.5 -18.5q25 0 43.5 18.5t18.5 44.5q0 25 -18.5 43.5t-43.5 18.5q-27 0 -45 -18.5t-18 -43.5z" />
<glyph unicode="/" horiz-adv-x="1118" d="M141 0l787 1331h49l-784 -1331h-52z" />
<glyph unicode="0" horiz-adv-x="1206" d="M188 369q0 -68 34 -137.5t95 -125.5q61 -57 139.5 -88.5t157.5 -31.5q82 0 159 31.5t140 88.5q59 55 93 124t34 139v278v19v8v287q0 70 -32.5 138t-94.5 126q-59 57 -138 87.5t-161 30.5q-80 0 -157.5 -30.5t-139.5 -87.5q-61 -57 -95 -126t-34 -138v-283v-12v-13v-284z M231 369v284v13v12v283q0 61 31 122.5t84 110.5q57 51 127 80t141 29q74 0 144.5 -29t126.5 -80q55 -49 83.5 -110.5t28.5 -122.5v-287v-8v-19v-278q0 -61 -28.5 -122t-83.5 -110q-55 -51 -126 -79.5t-145 -28.5q-72 0 -141.5 28.5t-126.5 79.5q-53 49 -84 110.5t-31 121.5z " />
<glyph unicode="1" horiz-adv-x="747" d="M94 852v57l457 437v-1346h-43v1247z" />
<glyph unicode="2" horiz-adv-x="1081" d="M141 1090q27 35 43.5 54t20.5 25q78 90 167 137.5t177 47.5q104 0 201 -66q59 -39 96 -96t45 -125q6 -31 6 -59q0 -133 -92 -250q-139 -187 -314.5 -424.5t-244.5 -333.5h-51q70 96 278.5 382t298.5 400q82 111 82 230q0 14 -4 47q-18 123 -123 194q-82 57 -176 58 q-82 0 -163 -43t-150 -127l-64 -76zM225 0l31 43h684v-43h-715z" />
<glyph unicode="3" horiz-adv-x="1146" d="M141 360h43v-6l-41 -28q-2 10 -2 34zM143 326l41 28q0 -88 53.5 -162.5t142.5 -118.5t193 -44q106 0 195.5 45t142 120.5t52.5 165.5q0 80 -44.5 158t-127.5 144l-84 67l55 55q59 63 83.5 115.5t24.5 120.5q0 76 -39.5 140.5t-108.5 102t-149 37.5t-148.5 -37.5 t-108.5 -102t-40 -140.5h-43q0 88 46.5 162.5t124 117.5t169.5 43t170 -43t124 -117.5t46 -162.5q0 -82 -29.5 -140.5t-90.5 -125.5l-25 -23l47 -35q92 -73 141.5 -160t49.5 -176q0 -102 -58.5 -188t-158 -136t-216.5 -50q-111 0 -206 45t-154 122.5t-70 172.5z" />
<glyph unicode="4" horiz-adv-x="1318" d="M119 330l688 1001h63v-985h-41l-2 942l-628 -917h1038v-41h-367v-330h-41v330h-710z" />
<glyph unicode="5" horiz-adv-x="1159" d="M166 324q0 -63 33.5 -126t93.5 -110q61 -51 141 -76.5t166 -25.5q119 0 219.5 52t157.5 142t57 197q0 72 -31.5 139.5t-91.5 120.5q-123 109 -311 108h-336l41 543h748v43h-789l-45 -629h381q82 0 154.5 -24.5t128.5 -71.5q51 -47 79.5 -106.5t28.5 -122.5 q0 -94 -51 -174t-141 -127t-199 -47q-164 0 -281 92q-53 43 -81.5 95t-28.5 108h-43z" />
<glyph unicode="6" horiz-adv-x="1107" d="M141 379q2 61 21.5 121.5t68 154t177.5 328.5q59 104 196 358h47q-233 -440 -352 -669q121 86 279 86q117 0 217 -51.5t158.5 -138.5t58.5 -189t-58.5 -189.5t-159 -138.5t-216.5 -51q-119 0 -219.5 51t-159 138t-58.5 190zM184 379q0 -90 53.5 -168t143.5 -123t197 -45 q106 0 196 45t143.5 123t53.5 168q0 92 -53.5 169t-143.5 122t-196 45q-105 0 -196 -45t-144.5 -122t-53.5 -169z" />
<glyph unicode="7" horiz-adv-x="1193" d="M131 1292v39h946l-698 -1331h-47l676 1292h-877z" />
<glyph unicode="8" horiz-adv-x="1124" d="M141 362q0 123 85 222.5t216 136.5q-94 35 -151.5 117t-57.5 182q0 88 46.5 162.5t124 117.5t169.5 43t170 -43t124 -117.5t46 -162.5q0 -100 -58 -181t-153 -118q134 -37 219 -135.5t85 -223.5q0 -102 -58.5 -189t-158 -137t-216.5 -50t-216 50t-157.5 137t-58.5 189z M184 362q0 -90 52.5 -166.5t142.5 -121.5t194 -45q107 0 196 45t141.5 121.5t52.5 166.5t-52.5 167t-141.5 122t-196 45q-104 0 -194 -45t-142.5 -121.5t-52.5 -167.5zM276 1020q0 -76 40 -140.5t109 -103.5t148 -39q80 0 149 39t108.5 103.5t39.5 140.5t-39.5 141.5 t-108.5 103.5t-149 38t-148.5 -38t-108.5 -103.5t-40 -141.5z" />
<glyph unicode="9" horiz-adv-x="1155" d="M141 973q0 102 59.5 189t160 138.5t217.5 51.5q119 0 218 -51.5t157.5 -138.5t58.5 -189q0 -53 -19.5 -110.5t-73 -162t-198.5 -376.5l-174 -324h-47q254 485 356 678q-125 -86 -278 -86q-119 0 -218.5 51t-159 138t-59.5 192zM184 973q0 -92 53.5 -170t143.5 -123 t197 -45q100 0 190 45t145.5 123t57.5 170q0 90 -53.5 168t-143.5 123t-196 45t-196.5 -45t-144 -123t-53.5 -168z" />
<glyph unicode=":" horiz-adv-x="456" d="M166 205q0 -27 18.5 -45.5t42.5 -18.5q27 0 45.5 18.5t18.5 45.5t-18.5 45t-45.5 18q-25 0 -43 -18.5t-18 -44.5zM166 592q0 -27 18.5 -45.5t42.5 -18.5q27 0 45.5 18.5t18.5 45.5q0 25 -18.5 43t-45.5 18q-25 0 -43 -18.5t-18 -42.5z" />
<glyph unicode=";" horiz-adv-x="497" d="M166 -86h63l90 174h-92zM205 412q0 -27 19.5 -45.5t45.5 -18.5q25 0 43.5 18.5t18.5 45.5q0 25 -18.5 44t-43.5 19q-27 0 -46 -19.5t-19 -43.5z" />
<glyph unicode="&#x3c;" horiz-adv-x="974" d="M166 666l643 462v-51l-571 -411l571 -418v-51z" />
<glyph unicode="=" horiz-adv-x="1169" d="M166 393h838v43h-838v-43zM166 901h838v41h-838v-41z" />
<glyph unicode="&#x3e;" horiz-adv-x="976" d="M166 199v51l571 416l-571 415v52l645 -467z" />
<glyph unicode="?" horiz-adv-x="1196" d="M141 971h43q0 90 53.5 166.5t142.5 121t195 44.5t195.5 -44.5t142 -121t52.5 -166.5q0 -111 -70 -205q-43 -55 -137 -131q-49 -39 -56 -43q-51 -41 -80.5 -73t-49 -82t-19.5 -126v-98h43v98q0 68 16.5 110t41 68.5t75.5 69.5l53 41q10 8 59.5 50t88.5 93q78 102 78 228 q0 74 -33 142.5t-94 123.5q-61 53 -140 81t-166 28q-180 0 -305 -109q-63 -53 -96 -121.5t-33 -144.5zM530 31q0 -18 12.5 -31.5t32.5 -13.5q16 0 31 13t15 32q0 18 -13.5 31.5t-32.5 13.5q-20 0 -32.5 -12.5t-12.5 -32.5z" />
<glyph unicode="@" horiz-adv-x="1765" d="M106 668q0 211 104.5 389t284 282.5t388.5 104.5q154 0 295 -57.5t252 -165.5q110 -111 169.5 -253.5t59.5 -299.5q0 -68 -25.5 -128.5t-72.5 -103.5q-41 -41 -97.5 -63.5t-111.5 -22.5q-102 0 -173 58.5t-100 150.5q-31 -53 -83 -84t-111 -31q-92 0 -159 67t-67 159 t67 158.5t159 66.5q51 0 98 -24.5t80 -65.5v78h39l2 -248q10 -98 76.5 -170t171.5 -72q51 0 97 18.5t83 55.5q41 39 63.5 91t22.5 110q0 150 -56.5 284.5t-162.5 237.5q-106 102 -238.5 156.5t-277.5 54.5q-199 0 -368 -99.5t-267 -267.5t-98 -366q0 -199 98 -368 t267 -267.5t368 -98.5q127 0 241.5 40t206.5 114h68q-104 -94 -236.5 -145.5t-279.5 -51.5q-209 0 -388.5 104.5t-284 283t-104.5 389.5zM702 670q0 -76 53.5 -129.5t129.5 -53.5q65 0 116.5 42t61.5 108v63q-12 66 -62.5 109t-115.5 43q-76 0 -129.5 -54.5t-53.5 -127.5z " />
<glyph unicode="A" d="M106 0l627 1348l594 -1348h-45l-172 391h-774l-182 -391h-48zM354 432h736l-359 815z" />
<glyph unicode="B" horiz-adv-x="1230" d="M195 0l2 1331h368q180 0 291 -98q47 -45 74.5 -104.5t27.5 -122.5q0 -109 -71 -193q-47 -53 -115 -90l-20 -6q86 -14 139 -39q92 -41 156.5 -125t64.5 -191q0 -90 -53 -174t-152.5 -136t-230.5 -52h-481zM238 43h438q119 0 208 46t137 120t48 153q0 92 -57.5 167 t-137.5 110q-113 47 -268 47h-368v-643zM238 729h323q59 0 101.5 7t82.5 24q23 8 62 34.5t73.5 81t34.5 130.5q0 74 -40.5 139t-120.5 106t-189 41h-327v-563z" />
<glyph unicode="C" horiz-adv-x="1413" d="M106 668q0 -184 91.5 -341t246 -249t336.5 -92q156 0 293 66.5t234 187.5l-35 24q-92 -111 -220 -173t-272 -62q-172 0 -316.5 86t-229 232.5t-84.5 320.5t84.5 320.5t229 233.5t316.5 87q133 0 256 -55.5t213 -155.5l31 28q-96 106 -226 164t-274 58 q-182 0 -336.5 -91.5t-246 -248t-91.5 -340.5z" />
<glyph unicode="D" horiz-adv-x="1329" d="M195 0h372q142 0 261.5 52t211.5 151q82 92 126 212t44 253q0 131 -44 251.5t-126 210.5q-182 201 -473 201h-372v-1331zM238 43v1245h329q135 0 247 -47t194 -139q78 -84 119.5 -196.5t41.5 -237.5t-42 -238t-119 -199q-80 -92 -193 -140t-248 -48h-329z" />
<glyph unicode="E" horiz-adv-x="1257" d="M195 0h872v45h-829v600h651v43h-651v600h829v43h-872v-1331z" />
<glyph unicode="F" horiz-adv-x="1236" d="M195 0h43v643h651v45h-651v600h827v43h-870v-1331z" />
<glyph unicode="G" horiz-adv-x="1466" d="M109 674q0 -182 90 -337t243.5 -246t335.5 -91h473v637h-524v-43h481v-551h-430q-170 0 -314.5 85t-228 229.5t-83.5 316.5t83.5 317.5t228 230.5t314.5 85q131 0 252 -53.5t209 -151.5l31 28q-94 104 -222 161t-270 57q-182 0 -335.5 -90.5t-243.5 -246t-90 -337.5z" />
<glyph unicode="H" horiz-adv-x="1351" d="M197 0h43v645h872v-645h43v1331h-43v-643h-872v643h-43v-1331z" />
<glyph unicode="I" horiz-adv-x="481" d="M219 0h43v1331h-43v-1331z" />
<glyph unicode="J" horiz-adv-x="1171" d="M59 270q70 -135 181 -209q110 -75 242 -75h3q107 0 198 43t159 123q72 86 109.5 207.5t37.5 269.5v702h-43v-702q0 -285 -137 -451q-59 -74 -142 -111.5t-182 -37.5q-123 0 -224 67.5t-165 192.5z" />
<glyph unicode="K" horiz-adv-x="1245" d="M195 -25v1356h43v-1218l827 1218h49l-485 -717l499 -614h-55l-467 580z" />
<glyph unicode="L" horiz-adv-x="1210" d="M195 0h845v43h-807v1288h-38v-1331z" />
<glyph unicode="M" horiz-adv-x="1769" d="M197 0h43v1202l647 -1018l643 1018v-1202h43v1348l-686 -1086l-690 1086v-1348z" />
<glyph unicode="N" horiz-adv-x="1392" d="M197 0h43v1217l960 -1242v1356h-43v-1222l-960 1239v-1348z" />
<glyph unicode="O" horiz-adv-x="1560" d="M106 668q0 -184 91.5 -341t246 -249t336.5 -92q183 0 337.5 92t245.5 248.5t91 341.5q0 184 -91 340.5t-245.5 248t-337.5 91.5q-182 0 -336.5 -91.5t-246 -248t-91.5 -340.5zM150 668q0 174 84.5 320.5t229 232.5t316.5 86t318.5 -86t231.5 -232.5t85 -320.5t-85 -320.5 t-231.5 -232.5t-318.5 -86t-316.5 86t-229 232.5t-84.5 320.5z" />
<glyph unicode="P" horiz-adv-x="1216" d="M195 0h43v604h424q115 0 213 49t154 132t56 182q0 100 -56 183t-153.5 132t-213.5 49h-447h-20v-1331zM238 645v643h424q104 0 191 -43t138 -116.5t51 -161.5q0 -86 -51 -161t-138 -118t-191 -43h-424z" />
<glyph unicode="Q" horiz-adv-x="1572" d="M106 668q0 184 91.5 340.5t246 248t336.5 91.5t337 -91.5t246 -248t91 -340.5q0 -146 -56.5 -275t-156.5 -223l162 -170h-57l-136 141q-88 -74 -198.5 -114.5t-231.5 -40.5q-182 0 -336.5 92t-246 248.5t-91.5 341.5zM147 668q0 -174 85 -320.5t230.5 -232.5t317.5 -86 q113 0 216.5 37.5t187.5 105.5l-441 473l31 29l440 -473q94 92 147.5 211.5t53.5 255.5q0 174 -85 320.5t-231.5 232.5t-318.5 86t-317.5 -86t-230.5 -232.5t-85 -320.5z" />
<glyph unicode="R" horiz-adv-x="1234" d="M195 0v1331h456q129 0 227.5 -52t151.5 -135t53 -173q0 -106 -60 -188.5t-153 -131.5q-57 -29 -112.5 -37t-151.5 -8l488 -606h-56l-522 645h107q84 0 129 10.5t100 34.5q78 37 134 113t56 168q0 80 -48 154.5t-137 120.5t-206 46h-418l5 -1292h-43z" />
<glyph unicode="S" horiz-adv-x="1261" d="M154 997q0 96 63.5 177t172 129.5t235.5 48.5q121 0 226 -44t170.5 -119t74.5 -165l-43 -23q0 84 -57.5 155t-156 112t-214.5 41q-117 0 -215.5 -41t-155.5 -113t-57 -158q0 -76 49 -145.5t135 -108.5q37 -16 84 -26t95 -17.5t67 -11.5q96 -14 159.5 -26.5t114.5 -38.5 q88 -45 141.5 -124t53.5 -163q0 -96 -63.5 -177t-172 -128t-235.5 -47q-123 0 -227.5 43t-169 118.5t-72.5 165.5l41 25q0 -84 58 -155.5t156.5 -112.5t213.5 -41q117 0 215 42t155.5 112.5t57.5 154.5q0 72 -45 137.5t-125 110.5q-47 27 -123 41t-137 20q-12 2 -106.5 17.5 t-154.5 42.5q-96 45 -152 124.5t-56 167.5z" />
<glyph unicode="T" horiz-adv-x="1431" d="M117 1288v43h1198v-43h-580v-1288h-43v1288h-575z" />
<glyph unicode="U" horiz-adv-x="1388" d="M195 494q0 -100 36.5 -193.5t106.5 -165.5q70 -74 163 -111.5t195 -37.5q101 0 193 37.5t162 111.5q70 72 106.5 165t36.5 194v837h-39v-837q0 -94 -35 -178.5t-100 -149.5q-63 -68 -147.5 -102.5t-176.5 -34.5q-195 0 -327 137q-63 66 -97 150.5t-34 177.5v837h-43v-837 z" />
<glyph unicode="V" horiz-adv-x="1415" d="M100 1331h47l558 -1251l559 1251h45l-604 -1356z" />
<glyph unicode="W" horiz-adv-x="1847" d="M106 1331h46l383 -1222l393 1097l389 -1097l379 1222h45l-422 -1356l-391 1106l-396 -1106z" />
<glyph unicode="X" horiz-adv-x="1265" d="M119 0l489 668l-489 663h49l463 -631l467 631h49l-490 -663l490 -668h-51l-465 631l-463 -631h-49z" />
<glyph unicode="Y" horiz-adv-x="1400" d="M102 1331h52l546 -780l549 780h49l-577 -825v-506h-43v506z" />
<glyph unicode="Z" horiz-adv-x="1286" d="M178 1288h766l-672 -1288h838v43h-768l670 1288h-834v-43z" />
<glyph unicode="[" horiz-adv-x="653" d="M166 0h321v43h-278v1249h278v39h-321v-1331z" />
<glyph unicode="\" horiz-adv-x="1118" d="M141 1331h52l784 -1331h-49z" />
<glyph unicode="]" horiz-adv-x="653" d="M166 0h321v1331h-321v-39h278v-1249h-278v-43z" />
<glyph unicode="^" horiz-adv-x="1261" d="M166 915l31 -30l432 434l436 -434l31 30l-467 463z" />
<glyph unicode="_" horiz-adv-x="1779" d="M141 0h1495v43h-1495v-43z" />
<glyph unicode="a" d="M106 0l627 1348l594 -1348h-45l-172 391h-774l-182 -391h-48zM354 432h736l-359 815z" />
<glyph unicode="b" horiz-adv-x="1230" d="M195 0l2 1331h368q180 0 291 -98q47 -45 74.5 -104.5t27.5 -122.5q0 -109 -71 -193q-47 -53 -115 -90l-20 -6q86 -14 139 -39q92 -41 156.5 -125t64.5 -191q0 -90 -53 -174t-152.5 -136t-230.5 -52h-481zM238 43h438q119 0 208 46t137 120t48 153q0 92 -57.5 167 t-137.5 110q-113 47 -268 47h-368v-643zM238 729h323q59 0 101.5 7t82.5 24q23 8 62 34.5t73.5 81t34.5 130.5q0 74 -40.5 139t-120.5 106t-189 41h-327v-563z" />
<glyph unicode="c" horiz-adv-x="1413" d="M106 668q0 -184 91.5 -341t246 -249t336.5 -92q156 0 293 66.5t234 187.5l-35 24q-92 -111 -220 -173t-272 -62q-172 0 -316.5 86t-229 232.5t-84.5 320.5t84.5 320.5t229 233.5t316.5 87q133 0 256 -55.5t213 -155.5l31 28q-96 106 -226 164t-274 58 q-182 0 -336.5 -91.5t-246 -248t-91.5 -340.5z" />
<glyph unicode="d" horiz-adv-x="1329" d="M195 0h372q142 0 261.5 52t211.5 151q82 92 126 212t44 253q0 131 -44 251.5t-126 210.5q-182 201 -473 201h-372v-1331zM238 43v1245h329q135 0 247 -47t194 -139q78 -84 119.5 -196.5t41.5 -237.5t-42 -238t-119 -199q-80 -92 -193 -140t-248 -48h-329z" />
<glyph unicode="e" horiz-adv-x="1257" d="M195 0h872v45h-829v600h651v43h-651v600h829v43h-872v-1331z" />
<glyph unicode="f" horiz-adv-x="1236" d="M195 0h43v643h651v45h-651v600h827v43h-870v-1331z" />
<glyph unicode="g" horiz-adv-x="1466" d="M109 674q0 -182 90 -337t243.5 -246t335.5 -91h473v637h-524v-43h481v-551h-430q-170 0 -314.5 85t-228 229.5t-83.5 316.5t83.5 317.5t228 230.5t314.5 85q131 0 252 -53.5t209 -151.5l31 28q-94 104 -222 161t-270 57q-182 0 -335.5 -90.5t-243.5 -246t-90 -337.5z" />
<glyph unicode="h" horiz-adv-x="1351" d="M197 0h43v645h872v-645h43v1331h-43v-643h-872v643h-43v-1331z" />
<glyph unicode="i" horiz-adv-x="481" d="M219 0h43v1331h-43v-1331z" />
<glyph unicode="j" horiz-adv-x="1171" d="M59 270q70 -135 181 -209q110 -75 242 -75h3q107 0 198 43t159 123q72 86 109.5 207.5t37.5 269.5v702h-43v-702q0 -285 -137 -451q-59 -74 -142 -111.5t-182 -37.5q-123 0 -224 67.5t-165 192.5z" />
<glyph unicode="k" horiz-adv-x="1245" d="M195 -25v1356h43v-1218l827 1218h49l-485 -717l499 -614h-55l-467 580z" />
<glyph unicode="l" horiz-adv-x="1210" d="M195 0h845v43h-807v1288h-38v-1331z" />
<glyph unicode="m" horiz-adv-x="1769" d="M197 0h43v1202l647 -1018l643 1018v-1202h43v1348l-686 -1086l-690 1086v-1348z" />
<glyph unicode="n" horiz-adv-x="1392" d="M197 0h43v1217l960 -1242v1356h-43v-1222l-960 1239v-1348z" />
<glyph unicode="o" horiz-adv-x="1560" d="M106 668q0 -184 91.5 -341t246 -249t336.5 -92q183 0 337.5 92t245.5 248.5t91 341.5q0 184 -91 340.5t-245.5 248t-337.5 91.5q-182 0 -336.5 -91.5t-246 -248t-91.5 -340.5zM150 668q0 174 84.5 320.5t229 232.5t316.5 86t318.5 -86t231.5 -232.5t85 -320.5t-85 -320.5 t-231.5 -232.5t-318.5 -86t-316.5 86t-229 232.5t-84.5 320.5z" />
<glyph unicode="p" horiz-adv-x="1216" d="M195 0h43v604h424q115 0 213 49t154 132t56 182q0 100 -56 183t-153.5 132t-213.5 49h-447h-20v-1331zM238 645v643h424q104 0 191 -43t138 -116.5t51 -161.5q0 -86 -51 -161t-138 -118t-191 -43h-424z" />
<glyph unicode="q" horiz-adv-x="1572" d="M106 668q0 184 91.5 340.5t246 248t336.5 91.5t337 -91.5t246 -248t91 -340.5q0 -146 -56.5 -275t-156.5 -223l162 -170h-57l-136 141q-88 -74 -198.5 -114.5t-231.5 -40.5q-182 0 -336.5 92t-246 248.5t-91.5 341.5zM147 668q0 -174 85 -320.5t230.5 -232.5t317.5 -86 q113 0 216.5 37.5t187.5 105.5l-441 473l31 29l440 -473q94 92 147.5 211.5t53.5 255.5q0 174 -85 320.5t-231.5 232.5t-318.5 86t-317.5 -86t-230.5 -232.5t-85 -320.5z" />
<glyph unicode="r" horiz-adv-x="1234" d="M195 0v1331h456q129 0 227.5 -52t151.5 -135t53 -173q0 -106 -60 -188.5t-153 -131.5q-57 -29 -112.5 -37t-151.5 -8l488 -606h-56l-522 645h107q84 0 129 10.5t100 34.5q78 37 134 113t56 168q0 80 -48 154.5t-137 120.5t-206 46h-418l5 -1292h-43z" />
<glyph unicode="s" horiz-adv-x="1261" d="M154 997q0 96 63.5 177t172 129.5t235.5 48.5q121 0 226 -44t170.5 -119t74.5 -165l-43 -23q0 84 -57.5 155t-156 112t-214.5 41q-117 0 -215.5 -41t-155.5 -113t-57 -158q0 -76 49 -145.5t135 -108.5q37 -16 84 -26t95 -17.5t67 -11.5q96 -14 159.5 -26.5t114.5 -38.5 q88 -45 141.5 -124t53.5 -163q0 -96 -63.5 -177t-172 -128t-235.5 -47q-123 0 -227.5 43t-169 118.5t-72.5 165.5l41 25q0 -84 58 -155.5t156.5 -112.5t213.5 -41q117 0 215 42t155.5 112.5t57.5 154.5q0 72 -45 137.5t-125 110.5q-47 27 -123 41t-137 20q-12 2 -106.5 17.5 t-154.5 42.5q-96 45 -152 124.5t-56 167.5z" />
<glyph unicode="t" horiz-adv-x="1431" d="M117 1288v43h1198v-43h-580v-1288h-43v1288h-575z" />
<glyph unicode="u" horiz-adv-x="1388" d="M195 494q0 -100 36.5 -193.5t106.5 -165.5q70 -74 163 -111.5t195 -37.5q101 0 193 37.5t162 111.5q70 72 106.5 165t36.5 194v837h-39v-837q0 -94 -35 -178.5t-100 -149.5q-63 -68 -147.5 -102.5t-176.5 -34.5q-195 0 -327 137q-63 66 -97 150.5t-34 177.5v837h-43v-837 z" />
<glyph unicode="v" horiz-adv-x="1415" d="M100 1331h47l558 -1251l559 1251h45l-604 -1356z" />
<glyph unicode="w" horiz-adv-x="1847" d="M106 1331h46l383 -1222l393 1097l389 -1097l379 1222h45l-422 -1356l-391 1106l-396 -1106z" />
<glyph unicode="x" horiz-adv-x="1265" d="M119 0l489 668l-489 663h49l463 -631l467 631h49l-490 -663l490 -668h-51l-465 631l-463 -631h-49z" />
<glyph unicode="y" horiz-adv-x="1400" d="M102 1331h52l546 -780l549 780h49l-577 -825v-506h-43v506z" />
<glyph unicode="z" horiz-adv-x="1286" d="M178 1288h766l-672 -1288h838v43h-768l670 1288h-834v-43z" />
<glyph unicode="{" horiz-adv-x="718" d="M166 674q14 16 51 61t37 56v237q0 111 84 201t215 123v-43q-117 -33 -187.5 -110t-70.5 -171v-237q0 -25 -19.5 -52.5t-50.5 -64.5q4 -4 24.5 -30t33 -49.5t12.5 -39.5v-240q0 -94 71.5 -171.5t186.5 -110.5v-43q-133 35 -216 124t-83 201v240q0 12 -37 57t-51 62z" />
<glyph unicode="|" horiz-adv-x="468" d="M213 0h43v1331h-43v-1331z" />
<glyph unicode="}" horiz-adv-x="716" d="M166 -10q131 35 214 125t83 200v240q0 12 37 57t51 62q-14 16 -51 61t-37 56v237q0 111 -83 201t-214 123v-43q115 -33 185.5 -110t70.5 -171v-237q0 -25 19.5 -52.5t50.5 -64.5q-4 -4 -25 -30t-33 -49.5t-12 -39.5v-240q0 -94 -70.5 -171.5t-185.5 -110.5v-43z" />
<glyph unicode="&#xa1;" horiz-adv-x="491" d="M201 1286q0 -18 13 -31.5t32 -13.5q18 0 31.5 14.5t13.5 30.5q0 20 -13.5 32.5t-31.5 12.5q-20 0 -32.5 -12t-12.5 -33zM225 0v1104h43v-1104h-43z" />
<glyph unicode="&#xa2;" horiz-adv-x="1413" d="M106 668q0 180 87.5 332.5t237 245.5t327.5 100v227h39v-227q137 -2 263 -60.5t220 -161.5l-33 -28q-90 98 -212 152.5t-255 54.5q-172 0 -316.5 -85t-229 -231.5t-84.5 -318.5q0 -174 84.5 -320.5t229 -232.5t316.5 -86q145 0 273.5 61.5t218.5 173.5l35 -24 q-97 -119 -229 -185.5t-281 -68.5v-219h-39v219q-178 6 -327.5 99t-237 246.5t-87.5 336.5z" />
<glyph unicode="&#xa3;" horiz-adv-x="1177" d="M193 0v47q119 25 202 105q53 49 83 109.5t30 121.5v272h-248v43h248v277q0 70 32.5 137.5t94.5 124.5q61 57 139 89t158 32h12v-43h-12q-72 0 -142.5 -29t-127.5 -80q-51 -49 -81 -110.5t-30 -120.5v-277h244v-43h-244v-272q0 -70 -34 -138.5t-93 -123.5 q-59 -53 -117 -78h680v-43h-794z" />
<glyph unicode="&#xa9;" horiz-adv-x="1226" d="M141 952q0 -127 63.5 -236.5t172 -173t235.5 -63.5q129 0 237.5 63.5t172 172t63.5 237.5t-63.5 237.5t-172 172t-237.5 63.5t-236.5 -63.5t-171 -172t-63.5 -237.5zM184 952q0 117 57.5 216.5t156 157.5t214.5 58q117 0 216.5 -58t156.5 -157.5t57 -216.5t-57 -215 t-156.5 -156.5t-216.5 -58.5t-215 58.5t-155.5 157t-57.5 214.5zM354 950q0 -72 35 -132t95.5 -96t129.5 -36q125 0 205 98l-35 27q-31 -39 -74.5 -60.5t-95.5 -21.5q-90 0 -153.5 64.5t-63.5 156.5q0 90 63.5 155.5t153.5 65.5q45 0 88 -18t74 -53l33 26q-37 43 -88 65.5 t-107 22.5q-70 0 -130 -35.5t-95 -96t-35 -132.5z" />
<glyph unicode="&#xab;" horiz-adv-x="1284" d="M166 666l645 462v-51l-571 -411l571 -418v-51zM475 666l643 462v-51l-571 -411l571 -418v-51z" />
<glyph unicode="&#xad;" horiz-adv-x="1169" d="M166 647h838v41h-838v-41z" />
<glyph unicode="&#xb0;" horiz-adv-x="761" d="M141 1176q0 -100 70 -170t170 -70q98 0 169 70.5t71 169.5q0 66 -33 121t-88.5 87.5t-118.5 32.5q-100 0 -170 -70.5t-70 -170.5zM184 1176q0 82 57.5 140t139.5 58q80 0 138.5 -58.5t58.5 -139.5q0 -82 -58.5 -139.5t-138.5 -57.5q-82 0 -139.5 57.5t-57.5 139.5z" />
<glyph unicode="&#xbb;" horiz-adv-x="1284" d="M166 199v51l571 416l-571 413v51l645 -464zM475 199v51l574 416l-574 415v52l643 -467z" />
<glyph unicode="&#xbf;" horiz-adv-x="1193" d="M188 362q0 -78 33 -146.5t96 -121.5q59 -53 138.5 -80.5t165.5 -27.5t164.5 27.5t140.5 80.5q61 53 94 123t33 145h-43q0 -90 -52.5 -166.5t-141.5 -121.5t-195 -45q-104 0 -194.5 45t-143 121.5t-52.5 166.5q0 111 70 201q27 35 57.5 64.5t79.5 68.5q10 10 27.5 22.5 t28.5 22.5q51 41 79.5 73t48 81t19.5 125v98h-43v-98q0 -66 -15.5 -109t-42 -71.5t-73.5 -65.5l-55 -45q-53 -43 -85 -72.5t-59 -66.5q-80 -104 -80 -228zM575 1300q0 -18 13.5 -31.5t32.5 -13.5q18 0 32.5 13.5t14.5 31.5t-14.5 32t-32.5 14t-32 -13.5t-14 -32.5z" />
<glyph unicode="&#xc0;" d="M106 0l627 1348l594 -1348h-45l-172 391h-774l-182 -391h-48zM354 432h736l-359 815zM514 1712l195 -190h35l-146 190h-84z" />
<glyph unicode="&#xc1;" d="M106 0l627 1348l594 -1348h-45l-172 391h-774l-182 -391h-48zM354 432h736l-359 815zM697 1522h36l195 192h-88z" />
<glyph unicode="&#xc2;" d="M106 0l627 1348l594 -1348h-45l-172 391h-774l-182 -391h-48zM354 432h736l-359 815zM535 1522l143 190h86l141 -190h-32l-152 147l-153 -147h-33z" />
<glyph unicode="&#xc3;" d="M106 0l627 1348l594 -1348h-45l-172 391h-774l-182 -391h-48zM354 432h736l-359 815zM415 1526l37 -17q2 2 22.5 41t78.5 56q10 4 32 4q55 0 111 -41q70 -49 135 -49q27 0 47 6q39 12 67.5 37.5t44 51t15.5 32.5l-37 16q-2 -2 -23.5 -41t-78.5 -55q-20 -4 -33 -4 q-51 0 -111 41q-74 49 -137 49q-23 0 -45 -6q-39 -12 -66.5 -39t-43 -52.5t-15.5 -29.5z" />
<glyph unicode="&#xc4;" d="M106 0l627 1348l594 -1348h-45l-172 391h-774l-182 -391h-48zM354 432h736l-359 815zM482 1567q0 -18 13 -31.5t32 -13.5q18 0 31.5 13t13.5 32q0 18 -13.5 31.5t-31.5 13.5q-19 0 -32 -13.5t-13 -31.5zM852 1567q0 -18 14.5 -31.5t30.5 -13.5q18 0 31.5 13t13.5 32 q0 18 -12 31.5t-33 13.5q-16 0 -30.5 -13.5t-14.5 -31.5z" />
<glyph unicode="&#xc5;" d="M106 0l627 1348l594 -1348h-45l-172 391h-774l-182 -391h-48zM354 432h736l-359 815zM572 1677q0 -66 45 -110.5t110 -44.5q66 0 111 45t45 110q0 63 -46 109.5t-110 46.5q-63 0 -109 -46t-46 -110zM615 1677q0 47 32.5 80t79.5 33t81 -34t34 -79q0 -47 -34 -80.5 t-81 -33.5t-79.5 33.5t-32.5 80.5z" />
<glyph unicode="&#xc6;" horiz-adv-x="2009" d="M106 0l617 1331h1094v-43h-828v-600h653v-43h-653v-602h828v-43h-871v461h-579l-213 -461h-48zM387 504h559v784h-194z" />
<glyph unicode="&#xc7;" horiz-adv-x="1413" d="M106 668q0 -184 91.5 -341t246 -249t336.5 -92q156 0 293 66.5t234 187.5l-35 24q-92 -111 -220 -173t-272 -62q-172 0 -316.5 86t-229 232.5t-84.5 320.5t84.5 320.5t229 233.5t316.5 87q133 0 256 -55.5t213 -155.5l31 28q-96 106 -226 164t-274 58 q-182 0 -336.5 -91.5t-246 -248t-91.5 -340.5zM621 -143q0 -53 47 -84q45 -33 108 -33q66 0 107 33q49 31 49 84q0 51 -49 86q-41 29 -86 30v47h-43v-88h22q45 0 79 -22.5t34 -52.5q0 -29 -34 -52.5t-79 -23.5t-79.5 23.5t-34.5 52.5h-41z" />
<glyph unicode="&#xc8;" horiz-adv-x="1257" d="M195 0h872v45h-829v600h651v43h-651v600h829v43h-872v-1331zM430 1712l195 -190h35l-146 190h-84z" />
<glyph unicode="&#xc9;" horiz-adv-x="1257" d="M195 0h872v45h-829v600h651v43h-651v600h829v43h-872v-1331zM621 1522h36l195 192h-88z" />
<glyph unicode="&#xca;" horiz-adv-x="1257" d="M195 0h872v45h-829v600h651v43h-651v600h829v43h-872v-1331zM471 1522l143 190h86l141 -190h-32l-152 147l-153 -147h-33z" />
<glyph unicode="&#xcb;" horiz-adv-x="1257" d="M195 0h872v45h-829v600h651v43h-651v600h829v43h-872v-1331zM416 1567q0 -18 13 -31.5t32 -13.5q18 0 31.5 13t13.5 32q0 18 -13.5 31.5t-31.5 13.5q-19 0 -32 -13.5t-13 -31.5zM786 1567q0 -18 14.5 -31.5t30.5 -13.5q18 0 31.5 13t13.5 32q0 18 -12 31.5t-33 13.5 q-16 0 -30.5 -13.5t-14.5 -31.5z" />
<glyph unicode="&#xcc;" horiz-adv-x="499" d="M47 1692l195 -195h32l-141 195h-86zM238 0h43v1331h-43v-1331z" />
<glyph unicode="&#xcd;" horiz-adv-x="499" d="M219 0h43v1331h-43v-1331zM223 1497h33l197 193h-86z" />
<glyph unicode="&#xce;" horiz-adv-x="481" d="M53 1497l146 193h84l145 -193h-35l-151 152l-154 -152h-35zM217 0h43v1331h-43v-1331z" />
<glyph unicode="&#xcf;" horiz-adv-x="479" d="M8 1542q0 -16 13.5 -30.5t31.5 -14.5t31.5 14.5t13.5 30.5q0 20 -13 32.5t-32 12.5q-18 0 -31.5 -12t-13.5 -33zM215 0h43v1331h-43v-1331zM379 1542q0 -16 13.5 -30.5t31.5 -14.5t32.5 14.5t14.5 30.5q0 18 -14.5 31.5t-32.5 13.5t-31.5 -12t-13.5 -33z" />
<glyph unicode="&#xd0;" horiz-adv-x="1558" d="M195 645v43h229v643h373q143 0 263 -50t208 -151q82 -90 127 -209.5t45 -252.5t-44 -253t-128 -212q-90 -98 -210 -150.5t-261 -52.5h-373v645h-229zM467 43h330q135 0 246.5 47t193.5 141q78 86 120 199t42 238t-42 237.5t-120 196.5q-82 92 -194.5 139t-245.5 47h-330 v-600h565v-43h-565v-602z" />
<glyph unicode="&#xd1;" horiz-adv-x="1392" d="M197 0h43v1217l960 -1242v1356h-43v-1222l-960 1239v-1348zM407 1526l37 -17q2 2 22.5 41t78.5 56q10 4 32 4q55 0 111 -41q70 -49 135 -49q27 0 47 6q39 12 67.5 37.5t44 51t15.5 32.5l-37 16q-2 -2 -23.5 -41t-78.5 -55q-20 -4 -33 -4q-51 0 -111 41q-74 49 -137 49 q-23 0 -45 -6q-39 -12 -66.5 -39t-43 -52.5t-15.5 -29.5z" />
<glyph unicode="&#xd2;" horiz-adv-x="1560" d="M106 668q0 -184 91.5 -341t246 -249t336.5 -92q183 0 337.5 92t245.5 248.5t91 341.5q0 184 -91 340.5t-245.5 248t-337.5 91.5q-182 0 -336.5 -91.5t-246 -248t-91.5 -340.5zM150 668q0 174 84.5 320.5t229 232.5t316.5 86t318.5 -86t231.5 -232.5t85 -320.5t-85 -320.5 t-231.5 -232.5t-318.5 -86t-316.5 86t-229 232.5t-84.5 320.5zM542 1712l195 -190h35l-146 190h-84z" />
<glyph unicode="&#xd3;" horiz-adv-x="1560" d="M106 668q0 -184 91.5 -341t246 -249t336.5 -92q183 0 337.5 92t245.5 248.5t91 341.5q0 184 -91 340.5t-245.5 248t-337.5 91.5q-182 0 -336.5 -91.5t-246 -248t-91.5 -340.5zM150 668q0 174 84.5 320.5t229 232.5t316.5 86t318.5 -86t231.5 -232.5t85 -320.5t-85 -320.5 t-231.5 -232.5t-318.5 -86t-316.5 86t-229 232.5t-84.5 320.5zM738 1522h36l195 192h-88z" />
<glyph unicode="&#xd4;" horiz-adv-x="1560" d="M106 668q0 -184 91.5 -341t246 -249t336.5 -92q183 0 337.5 92t245.5 248.5t91 341.5q0 184 -91 340.5t-245.5 248t-337.5 91.5q-182 0 -336.5 -91.5t-246 -248t-91.5 -340.5zM150 668q0 174 84.5 320.5t229 232.5t316.5 86t318.5 -86t231.5 -232.5t85 -320.5t-85 -320.5 t-231.5 -232.5t-318.5 -86t-316.5 86t-229 232.5t-84.5 320.5zM588 1522l143 190h86l141 -190h-32l-152 147l-153 -147h-33z" />
<glyph unicode="&#xd5;" horiz-adv-x="1560" d="M106 668q0 -184 91.5 -341t246 -249t336.5 -92q183 0 337.5 92t245.5 248.5t91 341.5q0 184 -91 340.5t-245.5 248t-337.5 91.5q-182 0 -336.5 -91.5t-246 -248t-91.5 -340.5zM150 668q0 174 84.5 320.5t229 232.5t316.5 86t318.5 -86t231.5 -232.5t85 -320.5t-85 -320.5 t-231.5 -232.5t-318.5 -86t-316.5 86t-229 232.5t-84.5 320.5zM448 1526l37 -17q2 2 22.5 41t78.5 56q10 4 32 4q55 0 111 -41q70 -49 135 -49q27 0 47 6q39 12 67.5 37.5t44 51t15.5 32.5l-37 16q-2 -2 -23.5 -41t-78.5 -55q-20 -4 -33 -4q-51 0 -111 41q-74 49 -137 49 q-23 0 -45 -6q-39 -12 -66.5 -39t-43 -52.5t-15.5 -29.5z" />
<glyph unicode="&#xd6;" horiz-adv-x="1560" d="M106 668q0 -184 91.5 -341t246 -249t336.5 -92q183 0 337.5 92t245.5 248.5t91 341.5q0 184 -91 340.5t-245.5 248t-337.5 91.5q-182 0 -336.5 -91.5t-246 -248t-91.5 -340.5zM150 668q0 174 84.5 320.5t229 232.5t316.5 86t318.5 -86t231.5 -232.5t85 -320.5t-85 -320.5 t-231.5 -232.5t-318.5 -86t-316.5 86t-229 232.5t-84.5 320.5zM523 1567q0 -18 13 -31.5t32 -13.5q18 0 31.5 13t13.5 32q0 18 -13.5 31.5t-31.5 13.5q-19 0 -32 -13.5t-13 -31.5zM893 1567q0 -18 14.5 -31.5t30.5 -13.5q18 0 31.5 13t13.5 32q0 18 -12 31.5t-33 13.5 q-16 0 -30.5 -13.5t-14.5 -31.5z" />
<glyph unicode="&#xd7;" horiz-adv-x="905" d="M141 383l283 283l-283 280l29 29l283 -283l280 283l31 -29l-281 -280l281 -283l-31 -29l-280 281l-283 -283z" />
<glyph unicode="&#xd8;" horiz-adv-x="1562" d="M106 674q0 184 91.5 340.5t246 249t336.5 92.5q174 0 330 -88l37 65h49l-51 -86q143 -92 227 -244.5t84 -328.5q0 -184 -91 -340t-246.5 -248t-338.5 -92q-170 0 -323 82l-45 -76h-50l60 100q-145 90 -230.5 243t-85.5 331zM150 674q0 -168 78.5 -310.5t213.5 -228.5 l645 1098q-150 80 -307 80q-172 0 -316.5 -86t-229 -232.5t-84.5 -320.5zM477 113q143 -78 303 -78q172 0 318.5 86t231.5 232.5t85 320.5q0 166 -79 307t-212 229z" />
<glyph unicode="&#xd9;" horiz-adv-x="1388" d="M195 494q0 -100 36.5 -193.5t106.5 -165.5q70 -74 163 -111.5t195 -37.5q101 0 193 37.5t162 111.5q70 72 106.5 165t36.5 194v837h-39v-837q0 -94 -35 -178.5t-100 -149.5q-63 -68 -147.5 -102.5t-176.5 -34.5q-195 0 -327 137q-63 66 -97 150.5t-34 177.5v837h-43v-837 zM471 1712l195 -190h35l-146 190h-84z" />
<glyph unicode="&#xda;" horiz-adv-x="1388" d="M195 494q0 -100 36.5 -193.5t106.5 -165.5q70 -74 163 -111.5t195 -37.5q101 0 193 37.5t162 111.5q70 72 106.5 165t36.5 194v837h-39v-837q0 -94 -35 -178.5t-100 -149.5q-63 -68 -147.5 -102.5t-176.5 -34.5q-195 0 -327 137q-63 66 -97 150.5t-34 177.5v837h-43v-837 zM660 1522h36l195 192h-88z" />
<glyph unicode="&#xdb;" horiz-adv-x="1388" d="M195 494q0 -100 36.5 -193.5t106.5 -165.5q70 -74 163 -111.5t195 -37.5q101 0 193 37.5t162 111.5q70 72 106.5 165t36.5 194v837h-39v-837q0 -94 -35 -178.5t-100 -149.5q-63 -68 -147.5 -102.5t-176.5 -34.5q-195 0 -327 137q-63 66 -97 150.5t-34 177.5v837h-43v-837 zM531 1522l143 190h86l141 -190h-32l-152 147l-153 -147h-33z" />
<glyph unicode="&#xdc;" horiz-adv-x="1388" d="M195 494q0 -100 36.5 -193.5t106.5 -165.5q70 -74 163 -111.5t195 -37.5q101 0 193 37.5t162 111.5q70 72 106.5 165t36.5 194v837h-39v-837q0 -94 -35 -178.5t-100 -149.5q-63 -68 -147.5 -102.5t-176.5 -34.5q-195 0 -327 137q-63 66 -97 150.5t-34 177.5v837h-43v-837 zM453 1567q0 -18 13 -31.5t32 -13.5q18 0 31.5 13t13.5 32q0 18 -13.5 31.5t-31.5 13.5q-19 0 -32 -13.5t-13 -31.5zM823 1567q0 -18 14.5 -31.5t30.5 -13.5q18 0 31.5 13t13.5 32q0 18 -12 31.5t-33 13.5q-16 0 -30.5 -13.5t-14.5 -31.5z" />
<glyph unicode="&#xdd;" horiz-adv-x="1400" d="M102 1331h52l546 -780l549 780h49l-577 -825v-506h-43v506zM668 1522h36l195 192h-88z" />
<glyph unicode="&#xdf;" horiz-adv-x="1226" d="M195 0v1010q0 88 47 161.5t127 116.5t176 43q94 0 174 -43t128 -116.5t48 -161.5q0 -90 -52 -167t-138 -120q111 -8 184 -45q90 -39 155.5 -123t65.5 -190q0 -92 -53 -176.5t-151.5 -136.5t-229.5 -52h-230v43h230q117 0 206 46t137 120t48 156q0 94 -57.5 167.5 t-137.5 108.5q-113 47 -266 47h-160v41h99q82 0 152.5 38t112.5 102.5t42 140.5t-42 139t-112.5 101t-152.5 38q-84 0 -155 -38t-111.5 -101.5t-40.5 -138.5v-1010h-43z" />
<glyph unicode="&#xe0;" d="M106 0l627 1348l594 -1348h-45l-172 391h-774l-182 -391h-48zM354 432h736l-359 815zM514 1712l195 -190h35l-146 190h-84z" />
<glyph unicode="&#xe1;" d="M106 0l627 1348l594 -1348h-45l-172 391h-774l-182 -391h-48zM354 432h736l-359 815zM697 1522h36l195 192h-88z" />
<glyph unicode="&#xe2;" d="M106 0l627 1348l594 -1348h-45l-172 391h-774l-182 -391h-48zM354 432h736l-359 815zM535 1522l143 190h86l141 -190h-32l-152 147l-153 -147h-33z" />
<glyph unicode="&#xe3;" d="M106 0l627 1348l594 -1348h-45l-172 391h-774l-182 -391h-48zM354 432h736l-359 815zM415 1526l37 -17q2 2 22.5 41t78.5 56q10 4 32 4q55 0 111 -41q70 -49 135 -49q27 0 47 6q39 12 67.5 37.5t44 51t15.5 32.5l-37 16q-2 -2 -23.5 -41t-78.5 -55q-20 -4 -33 -4 q-51 0 -111 41q-74 49 -137 49q-23 0 -45 -6q-39 -12 -66.5 -39t-43 -52.5t-15.5 -29.5z" />
<glyph unicode="&#xe4;" d="M106 0l627 1348l594 -1348h-45l-172 391h-774l-182 -391h-48zM354 432h736l-359 815zM482 1567q0 -18 13 -31.5t32 -13.5q18 0 31.5 13t13.5 32q0 18 -13.5 31.5t-31.5 13.5q-19 0 -32 -13.5t-13 -31.5zM852 1567q0 -18 14.5 -31.5t30.5 -13.5q18 0 31.5 13t13.5 32 q0 18 -12 31.5t-33 13.5q-16 0 -30.5 -13.5t-14.5 -31.5z" />
<glyph unicode="&#xe5;" d="M106 0l627 1348l594 -1348h-45l-172 391h-774l-182 -391h-48zM354 432h736l-359 815zM572 1677q0 -66 45 -110.5t110 -44.5q66 0 111 45t45 110q0 63 -46 109.5t-110 46.5q-63 0 -109 -46t-46 -110zM615 1677q0 47 32.5 80t79.5 33t81 -34t34 -79q0 -47 -34 -80.5 t-81 -33.5t-79.5 33.5t-32.5 80.5z" />
<glyph unicode="&#xe6;" horiz-adv-x="2009" d="M106 0l617 1331h1094v-43h-828v-600h653v-43h-653v-602h828v-43h-871v461h-579l-213 -461h-48zM387 504h559v784h-194z" />
<glyph unicode="&#xe7;" horiz-adv-x="1413" d="M106 668q0 -184 91.5 -341t246 -249t336.5 -92q156 0 293 66.5t234 187.5l-35 24q-92 -111 -220 -173t-272 -62q-172 0 -316.5 86t-229 232.5t-84.5 320.5t84.5 320.5t229 233.5t316.5 87q133 0 256 -55.5t213 -155.5l31 28q-96 106 -226 164t-274 58 q-182 0 -336.5 -91.5t-246 -248t-91.5 -340.5zM621 -143q0 -53 47 -84q45 -33 108 -33q66 0 107 33q49 31 49 84q0 51 -49 86q-41 29 -86 30v47h-43v-88h22q45 0 79 -22.5t34 -52.5q0 -29 -34 -52.5t-79 -23.5t-79.5 23.5t-34.5 52.5h-41z" />
<glyph unicode="&#xe8;" horiz-adv-x="1257" d="M195 0h872v45h-829v600h651v43h-651v600h829v43h-872v-1331zM430 1712l195 -190h35l-146 190h-84z" />
<glyph unicode="&#xe9;" horiz-adv-x="1257" d="M195 0h872v45h-829v600h651v43h-651v600h829v43h-872v-1331zM621 1522h36l195 192h-88z" />
<glyph unicode="&#xea;" horiz-adv-x="1257" d="M195 0h872v45h-829v600h651v43h-651v600h829v43h-872v-1331zM471 1522l143 190h86l141 -190h-32l-152 147l-153 -147h-33z" />
<glyph unicode="&#xeb;" horiz-adv-x="1257" d="M195 0h872v45h-829v600h651v43h-651v600h829v43h-872v-1331zM416 1567q0 -18 13 -31.5t32 -13.5q18 0 31.5 13t13.5 32q0 18 -13.5 31.5t-31.5 13.5q-19 0 -32 -13.5t-13 -31.5zM786 1567q0 -18 14.5 -31.5t30.5 -13.5q18 0 31.5 13t13.5 32q0 18 -12 31.5t-33 13.5 q-16 0 -30.5 -13.5t-14.5 -31.5z" />
<glyph unicode="&#xec;" horiz-adv-x="499" d="M47 1692l195 -195h32l-141 195h-86zM238 0h43v1331h-43v-1331z" />
<glyph unicode="&#xed;" horiz-adv-x="499" d="M219 0h43v1331h-43v-1331zM223 1497h33l197 193h-86z" />
<glyph unicode="&#xee;" horiz-adv-x="481" d="M53 1497l146 193h84l145 -193h-35l-151 152l-154 -152h-35zM217 0h43v1331h-43v-1331z" />
<glyph unicode="&#xef;" horiz-adv-x="479" d="M8 1542q0 -16 13.5 -30.5t31.5 -14.5t31.5 14.5t13.5 30.5q0 20 -13 32.5t-32 12.5q-18 0 -31.5 -12t-13.5 -33zM215 0h43v1331h-43v-1331zM379 1542q0 -16 13.5 -30.5t31.5 -14.5t32.5 14.5t14.5 30.5q0 18 -14.5 31.5t-32.5 13.5t-31.5 -12t-13.5 -33z" />
<glyph unicode="&#xf1;" horiz-adv-x="1392" d="M197 0h43v1217l960 -1242v1356h-43v-1222l-960 1239v-1348zM407 1526l37 -17q2 2 22.5 41t78.5 56q10 4 32 4q55 0 111 -41q70 -49 135 -49q27 0 47 6q39 12 67.5 37.5t44 51t15.5 32.5l-37 16q-2 -2 -23.5 -41t-78.5 -55q-20 -4 -33 -4q-51 0 -111 41q-74 49 -137 49 q-23 0 -45 -6q-39 -12 -66.5 -39t-43 -52.5t-15.5 -29.5z" />
<glyph unicode="&#xf2;" horiz-adv-x="1560" d="M106 668q0 -184 91.5 -341t246 -249t336.5 -92q183 0 337.5 92t245.5 248.5t91 341.5q0 184 -91 340.5t-245.5 248t-337.5 91.5q-182 0 -336.5 -91.5t-246 -248t-91.5 -340.5zM150 668q0 174 84.5 320.5t229 232.5t316.5 86t318.5 -86t231.5 -232.5t85 -320.5t-85 -320.5 t-231.5 -232.5t-318.5 -86t-316.5 86t-229 232.5t-84.5 320.5zM542 1712l195 -190h35l-146 190h-84z" />
<glyph unicode="&#xf3;" horiz-adv-x="1560" d="M106 668q0 -184 91.5 -341t246 -249t336.5 -92q183 0 337.5 92t245.5 248.5t91 341.5q0 184 -91 340.5t-245.5 248t-337.5 91.5q-182 0 -336.5 -91.5t-246 -248t-91.5 -340.5zM150 668q0 174 84.5 320.5t229 232.5t316.5 86t318.5 -86t231.5 -232.5t85 -320.5t-85 -320.5 t-231.5 -232.5t-318.5 -86t-316.5 86t-229 232.5t-84.5 320.5zM738 1522h36l195 192h-88z" />
<glyph unicode="&#xf4;" horiz-adv-x="1560" d="M106 668q0 -184 91.5 -341t246 -249t336.5 -92q183 0 337.5 92t245.5 248.5t91 341.5q0 184 -91 340.5t-245.5 248t-337.5 91.5q-182 0 -336.5 -91.5t-246 -248t-91.5 -340.5zM150 668q0 174 84.5 320.5t229 232.5t316.5 86t318.5 -86t231.5 -232.5t85 -320.5t-85 -320.5 t-231.5 -232.5t-318.5 -86t-316.5 86t-229 232.5t-84.5 320.5zM588 1522l143 190h86l141 -190h-32l-152 147l-153 -147h-33z" />
<glyph unicode="&#xf5;" horiz-adv-x="1560" d="M106 668q0 -184 91.5 -341t246 -249t336.5 -92q183 0 337.5 92t245.5 248.5t91 341.5q0 184 -91 340.5t-245.5 248t-337.5 91.5q-182 0 -336.5 -91.5t-246 -248t-91.5 -340.5zM150 668q0 174 84.5 320.5t229 232.5t316.5 86t318.5 -86t231.5 -232.5t85 -320.5t-85 -320.5 t-231.5 -232.5t-318.5 -86t-316.5 86t-229 232.5t-84.5 320.5zM448 1526l37 -17q2 2 22.5 41t78.5 56q10 4 32 4q55 0 111 -41q70 -49 135 -49q27 0 47 6q39 12 67.5 37.5t44 51t15.5 32.5l-37 16q-2 -2 -23.5 -41t-78.5 -55q-20 -4 -33 -4q-51 0 -111 41q-74 49 -137 49 q-23 0 -45 -6q-39 -12 -66.5 -39t-43 -52.5t-15.5 -29.5z" />
<glyph unicode="&#xf6;" horiz-adv-x="1560" d="M106 668q0 -184 91.5 -341t246 -249t336.5 -92q183 0 337.5 92t245.5 248.5t91 341.5q0 184 -91 340.5t-245.5 248t-337.5 91.5q-182 0 -336.5 -91.5t-246 -248t-91.5 -340.5zM150 668q0 174 84.5 320.5t229 232.5t316.5 86t318.5 -86t231.5 -232.5t85 -320.5t-85 -320.5 t-231.5 -232.5t-318.5 -86t-316.5 86t-229 232.5t-84.5 320.5zM523 1567q0 -18 13 -31.5t32 -13.5q18 0 31.5 13t13.5 32q0 18 -13.5 31.5t-31.5 13.5q-19 0 -32 -13.5t-13 -31.5zM893 1567q0 -18 14.5 -31.5t30.5 -13.5q18 0 31.5 13t13.5 32q0 18 -12 31.5t-33 13.5 q-16 0 -30.5 -13.5t-14.5 -31.5z" />
<glyph unicode="&#xf8;" horiz-adv-x="1562" d="M106 674q0 184 91.5 340.5t246 249t336.5 92.5q174 0 330 -88l37 65h49l-51 -86q143 -92 227 -244.5t84 -328.5q0 -184 -91 -340t-246.5 -248t-338.5 -92q-170 0 -323 82l-45 -76h-50l60 100q-145 90 -230.5 243t-85.5 331zM150 674q0 -168 78.5 -310.5t213.5 -228.5 l645 1098q-150 80 -307 80q-172 0 -316.5 -86t-229 -232.5t-84.5 -320.5zM477 113q143 -78 303 -78q172 0 318.5 86t231.5 232.5t85 320.5q0 166 -79 307t-212 229z" />
<glyph unicode="&#xf9;" horiz-adv-x="1388" d="M195 494q0 -100 36.5 -193.5t106.5 -165.5q70 -74 163 -111.5t195 -37.5q101 0 193 37.5t162 111.5q70 72 106.5 165t36.5 194v837h-39v-837q0 -94 -35 -178.5t-100 -149.5q-63 -68 -147.5 -102.5t-176.5 -34.5q-195 0 -327 137q-63 66 -97 150.5t-34 177.5v837h-43v-837 zM471 1712l195 -190h35l-146 190h-84z" />
<glyph unicode="&#xfa;" horiz-adv-x="1388" d="M195 494q0 -100 36.5 -193.5t106.5 -165.5q70 -74 163 -111.5t195 -37.5q101 0 193 37.5t162 111.5q70 72 106.5 165t36.5 194v837h-39v-837q0 -94 -35 -178.5t-100 -149.5q-63 -68 -147.5 -102.5t-176.5 -34.5q-195 0 -327 137q-63 66 -97 150.5t-34 177.5v837h-43v-837 zM660 1522h36l195 192h-88z" />
<glyph unicode="&#xfb;" horiz-adv-x="1388" d="M195 494q0 -100 36.5 -193.5t106.5 -165.5q70 -74 163 -111.5t195 -37.5q101 0 193 37.5t162 111.5q70 72 106.5 165t36.5 194v837h-39v-837q0 -94 -35 -178.5t-100 -149.5q-63 -68 -147.5 -102.5t-176.5 -34.5q-195 0 -327 137q-63 66 -97 150.5t-34 177.5v837h-43v-837 zM531 1522l143 190h86l141 -190h-32l-152 147l-153 -147h-33z" />
<glyph unicode="&#xfc;" horiz-adv-x="1388" d="M195 494q0 -100 36.5 -193.5t106.5 -165.5q70 -74 163 -111.5t195 -37.5q101 0 193 37.5t162 111.5q70 72 106.5 165t36.5 194v837h-39v-837q0 -94 -35 -178.5t-100 -149.5q-63 -68 -147.5 -102.5t-176.5 -34.5q-195 0 -327 137q-63 66 -97 150.5t-34 177.5v837h-43v-837 zM453 1567q0 -18 13 -31.5t32 -13.5q18 0 31.5 13t13.5 32q0 18 -13.5 31.5t-31.5 13.5q-19 0 -32 -13.5t-13 -31.5zM823 1567q0 -18 14.5 -31.5t30.5 -13.5q18 0 31.5 13t13.5 32q0 18 -12 31.5t-33 13.5q-16 0 -30.5 -13.5t-14.5 -31.5z" />
<glyph unicode="&#xfd;" horiz-adv-x="1400" d="M102 1331h52l546 -780l549 780h49l-577 -825v-506h-43v506zM668 1522h36l195 192h-88z" />
<glyph unicode="&#xff;" horiz-adv-x="1400" d="M102 1331h52l546 -780l549 780h49l-577 -825v-506h-43v506zM455 1567q0 -18 13 -31.5t32 -13.5q18 0 31.5 13t13.5 32q0 18 -13.5 31.5t-31.5 13.5q-19 0 -32 -13.5t-13 -31.5zM825 1567q0 -18 14.5 -31.5t30.5 -13.5q18 0 31.5 13t13.5 32q0 18 -12 31.5t-33 13.5 q-16 0 -30.5 -13.5t-14.5 -31.5z" />
<glyph unicode="&#x152;" horiz-adv-x="2353" d="M106 668q0 180 89.5 332.5t240 241.5t330.5 89q158 0 296 -70.5t230 -193.5v264h871v-43h-830v-602h654v-43h-654v-600h830v-43h-871v264q-92 -123 -230 -193.5t-296 -70.5q-180 0 -330.5 90t-240 242.5t-89.5 335.5zM147 668q0 -170 84 -313.5t225.5 -227.5t309.5 -84 q164 0 303 80t223 215v657q-84 135 -223 216t-303 81q-168 0 -309.5 -85t-225.5 -228t-84 -311z" />
<glyph unicode="&#x153;" horiz-adv-x="2353" d="M106 668q0 180 89.5 332.5t240 241.5t330.5 89q158 0 296 -70.5t230 -193.5v264h871v-43h-830v-602h654v-43h-654v-600h830v-43h-871v264q-92 -123 -230 -193.5t-296 -70.5q-180 0 -330.5 90t-240 242.5t-89.5 335.5zM147 668q0 -170 84 -313.5t225.5 -227.5t309.5 -84 q164 0 303 80t223 215v657q-84 135 -223 216t-303 81q-168 0 -309.5 -85t-225.5 -228t-84 -311z" />
<glyph unicode="&#x178;" horiz-adv-x="1400" d="M102 1331h52l546 -780l549 780h49l-577 -825v-506h-43v506zM455 1567q0 -18 13 -31.5t32 -13.5q18 0 31.5 13t13.5 32q0 18 -13.5 31.5t-31.5 13.5q-19 0 -32 -13.5t-13 -31.5zM825 1567q0 -18 14.5 -31.5t30.5 -13.5q18 0 31.5 13t13.5 32q0 18 -12 31.5t-33 13.5 q-16 0 -30.5 -13.5t-14.5 -31.5z" />
<glyph unicode="&#x2000;" horiz-adv-x="916" />
<glyph unicode="&#x2001;" horiz-adv-x="1833" />
<glyph unicode="&#x2002;" horiz-adv-x="916" />
<glyph unicode="&#x2003;" horiz-adv-x="1833" />
<glyph unicode="&#x2004;" horiz-adv-x="611" />
<glyph unicode="&#x2005;" horiz-adv-x="458" />
<glyph unicode="&#x2006;" horiz-adv-x="305" />
<glyph unicode="&#x2007;" horiz-adv-x="305" />
<glyph unicode="&#x2008;" horiz-adv-x="229" />
<glyph unicode="&#x2009;" horiz-adv-x="366" />
<glyph unicode="&#x200a;" horiz-adv-x="101" />
<glyph unicode="&#x2010;" horiz-adv-x="1169" d="M166 647h838v41h-838v-41z" />
<glyph unicode="&#x2011;" horiz-adv-x="1169" d="M166 647h838v41h-838v-41z" />
<glyph unicode="&#x2012;" horiz-adv-x="1169" d="M166 647h838v41h-838v-41z" />
<glyph unicode="&#x2013;" horiz-adv-x="1120" d="M141 647h838v41h-838v-41z" />
<glyph unicode="&#x2014;" horiz-adv-x="2379" d="M166 647h2048v41h-2048v-41z" />
<glyph unicode="&#x2018;" horiz-adv-x="460" d="M166 1157h63l90 174h-94z" />
<glyph unicode="&#x2019;" horiz-adv-x="460" d="M166 1157h63l90 174h-94z" />
<glyph unicode="&#x201a;" horiz-adv-x="448" d="M131 -88h64l90 176h-97z" />
<glyph unicode="&#x201c;" horiz-adv-x="692" d="M178 1157h62l92 174h-94zM362 1157h64l90 174h-92z" />
<glyph unicode="&#x201d;" horiz-adv-x="692" d="M178 1157h62l92 174h-94zM362 1157h64l90 174h-92z" />
<glyph unicode="&#x201e;" horiz-adv-x="448" d="M131 -88h64l90 176h-97zM131 -88h64l90 176h-97z" />
<glyph unicode="&#x2026;" horiz-adv-x="966" d="M166 63q0 -26 18.5 -44.5t44.5 -18.5q25 0 43.5 18.5t18.5 44.5q0 25 -18.5 43.5t-43.5 18.5q-27 0 -45 -18.5t-18 -43.5zM418 63q0 -26 19.5 -44.5t45.5 -18.5q27 0 45.5 18.5t18.5 44.5q0 25 -18.5 43.5t-45.5 18.5t-46 -18.5t-19 -43.5zM674 61q0 -24 19.5 -42.5 t43.5 -18.5q27 0 46.5 18.5t19.5 42.5q0 27 -19.5 45.5t-46.5 18.5q-25 0 -44 -18.5t-19 -45.5z" />
<glyph unicode="&#x202f;" horiz-adv-x="366" />
<glyph unicode="&#x2039;" horiz-adv-x="976" d="M166 666l645 464v-51l-571 -413l571 -418v-51z" />
<glyph unicode="&#x203a;" horiz-adv-x="974" d="M166 199v51l571 416l-571 415v52l643 -467z" />
<glyph unicode="&#x205f;" horiz-adv-x="458" />
<glyph unicode="&#x20ac;" horiz-adv-x="1409" d="M106 492v43h248q-14 82 -14 147q0 72 16 154h-250v43h263q41 139 136 248.5t227 171t280 61.5h207v-41h-207q-138 0 -259.5 -56.5t-210.5 -156.5t-130 -227h614v-43h-627q-18 -76 -18 -154q0 -72 16 -147h629v-43h-616q39 -129 128 -231.5t211.5 -160t262.5 -57.5h207 v-43h-207q-150 0 -283 63.5t-228 175t-134 253.5h-261z" />
<glyph unicode="&#x2122;" horiz-adv-x="1419" />
<glyph unicode="&#x25fc;" horiz-adv-x="1331" d="M0 0v1331h1331v-1331h-1331z" />
</font>
</defs>
</svg>
